<mxfile host="app.diagrams.net" agent="Mozilla/5.0 (Windows NT 10.0; Win64; x64) AppleWebKit/537.36 (KHTML, like Gecko) Chrome/135.0.0.0 Safari/537.36" version="26.2.14">
  <diagram name="Page-1" id="Zulq8joNVkJHGW3_Kud2">
    <mxGraphModel grid="1" page="1" gridSize="10" guides="1" tooltips="1" connect="1" arrows="1" fold="1" pageScale="1" pageWidth="850" pageHeight="1100" math="0" shadow="0">
      <root>
        <mxCell id="0" />
        <mxCell id="1" parent="0" />
        <mxCell id="oslHZ6fTA3NsTfyxlxgq-1" value="wards" style="rounded=0;whiteSpace=wrap;html=1;" vertex="1" parent="1">
          <mxGeometry x="60" y="120" width="110" height="50" as="geometry" />
        </mxCell>
        <mxCell id="oslHZ6fTA3NsTfyxlxgq-2" value="patients" style="rounded=0;whiteSpace=wrap;html=1;" vertex="1" parent="1">
          <mxGeometry x="399" y="120" width="110" height="50" as="geometry" />
        </mxCell>
        <mxCell id="oslHZ6fTA3NsTfyxlxgq-3" value="Wname" style="ellipse;whiteSpace=wrap;html=1;" vertex="1" parent="1">
          <mxGeometry y="30" width="80" height="50" as="geometry" />
        </mxCell>
        <mxCell id="oslHZ6fTA3NsTfyxlxgq-4" value="&lt;u&gt;W_id&lt;/u&gt;" style="ellipse;whiteSpace=wrap;html=1;" vertex="1" parent="1">
          <mxGeometry x="90" y="30" width="80" height="50" as="geometry" />
        </mxCell>
        <mxCell id="oslHZ6fTA3NsTfyxlxgq-5" value="" style="endArrow=classic;html=1;rounded=0;exitX=0.25;exitY=0;exitDx=0;exitDy=0;entryX=0.65;entryY=0.987;entryDx=0;entryDy=0;entryPerimeter=0;" edge="1" parent="1" source="oslHZ6fTA3NsTfyxlxgq-1" target="oslHZ6fTA3NsTfyxlxgq-3">
          <mxGeometry width="50" height="50" relative="1" as="geometry">
            <mxPoint x="-10" y="200" as="sourcePoint" />
            <mxPoint x="40" y="150" as="targetPoint" />
          </mxGeometry>
        </mxCell>
        <mxCell id="oslHZ6fTA3NsTfyxlxgq-6" value="" style="endArrow=classic;html=1;rounded=0;exitX=0.5;exitY=0;exitDx=0;exitDy=0;entryX=0.5;entryY=1;entryDx=0;entryDy=0;" edge="1" parent="1" source="oslHZ6fTA3NsTfyxlxgq-1" target="oslHZ6fTA3NsTfyxlxgq-4">
          <mxGeometry width="50" height="50" relative="1" as="geometry">
            <mxPoint x="98" y="130" as="sourcePoint" />
            <mxPoint x="20" y="120" as="targetPoint" />
          </mxGeometry>
        </mxCell>
        <mxCell id="oslHZ6fTA3NsTfyxlxgq-7" value="&lt;u&gt;Patient_id&lt;/u&gt;" style="ellipse;whiteSpace=wrap;html=1;" vertex="1" parent="1">
          <mxGeometry x="370" y="20" width="80" height="50" as="geometry" />
        </mxCell>
        <mxCell id="oslHZ6fTA3NsTfyxlxgq-8" value="date_of_birth" style="ellipse;whiteSpace=wrap;html=1;" vertex="1" parent="1">
          <mxGeometry x="539" y="50" width="80" height="50" as="geometry" />
        </mxCell>
        <mxCell id="oslHZ6fTA3NsTfyxlxgq-9" value="&lt;u&gt;Pname&lt;/u&gt;" style="ellipse;whiteSpace=wrap;html=1;" vertex="1" parent="1">
          <mxGeometry x="459" y="20" width="80" height="50" as="geometry" />
        </mxCell>
        <mxCell id="oslHZ6fTA3NsTfyxlxgq-10" value="" style="endArrow=classic;html=1;rounded=0;exitX=0.25;exitY=0;exitDx=0;exitDy=0;entryX=0.5;entryY=1;entryDx=0;entryDy=0;" edge="1" parent="1" source="oslHZ6fTA3NsTfyxlxgq-2" target="oslHZ6fTA3NsTfyxlxgq-7">
          <mxGeometry width="50" height="50" relative="1" as="geometry">
            <mxPoint x="419" y="120" as="sourcePoint" />
            <mxPoint x="434" y="80" as="targetPoint" />
          </mxGeometry>
        </mxCell>
        <mxCell id="oslHZ6fTA3NsTfyxlxgq-11" value="" style="endArrow=classic;html=1;rounded=0;exitX=0.5;exitY=0;exitDx=0;exitDy=0;entryX=0.5;entryY=1;entryDx=0;entryDy=0;" edge="1" parent="1" source="oslHZ6fTA3NsTfyxlxgq-2" target="oslHZ6fTA3NsTfyxlxgq-9">
          <mxGeometry width="50" height="50" relative="1" as="geometry">
            <mxPoint x="437" y="130" as="sourcePoint" />
            <mxPoint x="420" y="80" as="targetPoint" />
          </mxGeometry>
        </mxCell>
        <mxCell id="oslHZ6fTA3NsTfyxlxgq-12" value="" style="endArrow=classic;html=1;rounded=0;exitX=1;exitY=0.75;exitDx=0;exitDy=0;entryX=0.5;entryY=1;entryDx=0;entryDy=0;" edge="1" parent="1" source="oslHZ6fTA3NsTfyxlxgq-2" target="oslHZ6fTA3NsTfyxlxgq-8">
          <mxGeometry width="50" height="50" relative="1" as="geometry">
            <mxPoint x="447" y="140" as="sourcePoint" />
            <mxPoint x="430" y="90" as="targetPoint" />
          </mxGeometry>
        </mxCell>
        <mxCell id="oslHZ6fTA3NsTfyxlxgq-13" value="" style="edgeStyle=entityRelationEdgeStyle;fontSize=12;html=1;endArrow=ERoneToMany;rounded=0;exitX=1;exitY=0.5;exitDx=0;exitDy=0;entryX=0;entryY=0.5;entryDx=0;entryDy=0;" edge="1" parent="1" source="oslHZ6fTA3NsTfyxlxgq-15" target="oslHZ6fTA3NsTfyxlxgq-2">
          <mxGeometry width="100" height="100" relative="1" as="geometry">
            <mxPoint x="190" y="170" as="sourcePoint" />
            <mxPoint x="270" y="250" as="targetPoint" />
          </mxGeometry>
        </mxCell>
        <mxCell id="oslHZ6fTA3NsTfyxlxgq-15" value="host" style="rhombus;whiteSpace=wrap;html=1;" vertex="1" parent="1">
          <mxGeometry x="240" y="120" width="70" height="55" as="geometry" />
        </mxCell>
        <mxCell id="oslHZ6fTA3NsTfyxlxgq-17" value="" style="edgeStyle=entityRelationEdgeStyle;fontSize=12;html=1;endArrow=ERone;endFill=1;rounded=0;entryX=1;entryY=0.5;entryDx=0;entryDy=0;exitX=0;exitY=0.5;exitDx=0;exitDy=0;" edge="1" parent="1" source="oslHZ6fTA3NsTfyxlxgq-15" target="oslHZ6fTA3NsTfyxlxgq-1">
          <mxGeometry width="100" height="100" relative="1" as="geometry">
            <mxPoint x="190" y="180" as="sourcePoint" />
            <mxPoint x="330" y="240" as="targetPoint" />
          </mxGeometry>
        </mxCell>
        <mxCell id="oslHZ6fTA3NsTfyxlxgq-19" value="consultants" style="rounded=0;whiteSpace=wrap;html=1;" vertex="1" parent="1">
          <mxGeometry x="600" y="300" width="110" height="50" as="geometry" />
        </mxCell>
        <mxCell id="oslHZ6fTA3NsTfyxlxgq-22" value="Cname" style="ellipse;whiteSpace=wrap;html=1;" vertex="1" parent="1">
          <mxGeometry x="560" y="380" width="80" height="50" as="geometry" />
        </mxCell>
        <mxCell id="oslHZ6fTA3NsTfyxlxgq-23" value="&lt;u&gt;C_id&lt;/u&gt;" style="ellipse;whiteSpace=wrap;html=1;" vertex="1" parent="1">
          <mxGeometry x="650" y="380" width="80" height="50" as="geometry" />
        </mxCell>
        <mxCell id="oslHZ6fTA3NsTfyxlxgq-24" value="" style="endArrow=classic;html=1;rounded=0;exitX=0.25;exitY=1;exitDx=0;exitDy=0;entryX=0.61;entryY=0.022;entryDx=0;entryDy=0;entryPerimeter=0;" edge="1" parent="1" source="oslHZ6fTA3NsTfyxlxgq-19" target="oslHZ6fTA3NsTfyxlxgq-22">
          <mxGeometry width="50" height="50" relative="1" as="geometry">
            <mxPoint x="638" y="290" as="sourcePoint" />
            <mxPoint x="590" y="320" as="targetPoint" />
          </mxGeometry>
        </mxCell>
        <mxCell id="oslHZ6fTA3NsTfyxlxgq-25" value="" style="endArrow=classic;html=1;rounded=0;exitX=0.75;exitY=1;exitDx=0;exitDy=0;" edge="1" parent="1" source="oslHZ6fTA3NsTfyxlxgq-19">
          <mxGeometry width="50" height="50" relative="1" as="geometry">
            <mxPoint x="665" y="290" as="sourcePoint" />
            <mxPoint x="690" y="380" as="targetPoint" />
          </mxGeometry>
        </mxCell>
        <mxCell id="oslHZ6fTA3NsTfyxlxgq-26" value="Nurse" style="rounded=0;whiteSpace=wrap;html=1;" vertex="1" parent="1">
          <mxGeometry x="50" y="440" width="110" height="50" as="geometry" />
        </mxCell>
        <mxCell id="oslHZ6fTA3NsTfyxlxgq-27" value="nurse_name" style="ellipse;whiteSpace=wrap;html=1;" vertex="1" parent="1">
          <mxGeometry x="20" y="520" width="80" height="50" as="geometry" />
        </mxCell>
        <mxCell id="oslHZ6fTA3NsTfyxlxgq-28" value="phone_num" style="ellipse;whiteSpace=wrap;html=1;" vertex="1" parent="1">
          <mxGeometry x="110" y="520" width="80" height="50" as="geometry" />
        </mxCell>
        <mxCell id="oslHZ6fTA3NsTfyxlxgq-29" value="" style="endArrow=classic;html=1;rounded=0;exitX=0.332;exitY=1.038;exitDx=0;exitDy=0;entryX=0.61;entryY=0.022;entryDx=0;entryDy=0;entryPerimeter=0;exitPerimeter=0;" edge="1" parent="1" source="oslHZ6fTA3NsTfyxlxgq-26" target="oslHZ6fTA3NsTfyxlxgq-27">
          <mxGeometry width="50" height="50" relative="1" as="geometry">
            <mxPoint x="88" y="490" as="sourcePoint" />
            <mxPoint x="50" y="460" as="targetPoint" />
          </mxGeometry>
        </mxCell>
        <mxCell id="oslHZ6fTA3NsTfyxlxgq-30" value="" style="endArrow=classic;html=1;rounded=0;exitX=0.661;exitY=1.038;exitDx=0;exitDy=0;exitPerimeter=0;" edge="1" parent="1" source="oslHZ6fTA3NsTfyxlxgq-26">
          <mxGeometry width="50" height="50" relative="1" as="geometry">
            <mxPoint x="143" y="490" as="sourcePoint" />
            <mxPoint x="150" y="520" as="targetPoint" />
          </mxGeometry>
        </mxCell>
        <mxCell id="oslHZ6fTA3NsTfyxlxgq-31" value="" style="endArrow=classic;html=1;rounded=0;exitX=1;exitY=0.5;exitDx=0;exitDy=0;entryX=0;entryY=0;entryDx=0;entryDy=0;" edge="1" parent="1" source="oslHZ6fTA3NsTfyxlxgq-26" target="oslHZ6fTA3NsTfyxlxgq-32">
          <mxGeometry width="50" height="50" relative="1" as="geometry">
            <mxPoint x="107" y="502" as="sourcePoint" />
            <mxPoint x="79" y="531" as="targetPoint" />
          </mxGeometry>
        </mxCell>
        <mxCell id="oslHZ6fTA3NsTfyxlxgq-32" value="address" style="ellipse;whiteSpace=wrap;html=1;" vertex="1" parent="1">
          <mxGeometry x="190" y="480" width="80" height="50" as="geometry" />
        </mxCell>
        <mxCell id="oslHZ6fTA3NsTfyxlxgq-34" value="drug" style="rounded=0;whiteSpace=wrap;html=1;" vertex="1" parent="1">
          <mxGeometry x="330" y="560" width="110" height="50" as="geometry" />
        </mxCell>
        <mxCell id="oslHZ6fTA3NsTfyxlxgq-35" value="&lt;u&gt;code_num&lt;/u&gt;" style="ellipse;whiteSpace=wrap;html=1;" vertex="1" parent="1">
          <mxGeometry x="290" y="640" width="80" height="50" as="geometry" />
        </mxCell>
        <mxCell id="oslHZ6fTA3NsTfyxlxgq-36" value="recommended&lt;br&gt;dosage" style="ellipse;whiteSpace=wrap;html=1;" vertex="1" parent="1">
          <mxGeometry x="380" y="640" width="110" height="70" as="geometry" />
        </mxCell>
        <mxCell id="oslHZ6fTA3NsTfyxlxgq-37" value="" style="endArrow=classic;html=1;rounded=0;exitX=0.332;exitY=1.038;exitDx=0;exitDy=0;entryX=0.61;entryY=0.022;entryDx=0;entryDy=0;entryPerimeter=0;exitPerimeter=0;" edge="1" parent="1" source="oslHZ6fTA3NsTfyxlxgq-34" target="oslHZ6fTA3NsTfyxlxgq-35">
          <mxGeometry width="50" height="50" relative="1" as="geometry">
            <mxPoint x="358" y="610" as="sourcePoint" />
            <mxPoint x="320" y="580" as="targetPoint" />
          </mxGeometry>
        </mxCell>
        <mxCell id="oslHZ6fTA3NsTfyxlxgq-38" value="" style="endArrow=classic;html=1;rounded=0;exitX=0.661;exitY=1.038;exitDx=0;exitDy=0;exitPerimeter=0;" edge="1" parent="1" source="oslHZ6fTA3NsTfyxlxgq-34">
          <mxGeometry width="50" height="50" relative="1" as="geometry">
            <mxPoint x="413" y="610" as="sourcePoint" />
            <mxPoint x="420" y="640" as="targetPoint" />
          </mxGeometry>
        </mxCell>
        <mxCell id="oslHZ6fTA3NsTfyxlxgq-42" value="Examination" style="rhombus;whiteSpace=wrap;html=1;" vertex="1" parent="1">
          <mxGeometry x="600" y="190" width="110" height="55" as="geometry" />
        </mxCell>
        <mxCell id="oslHZ6fTA3NsTfyxlxgq-45" value="Leading" style="rhombus;whiteSpace=wrap;html=1;" vertex="1" parent="1">
          <mxGeometry x="410" y="310" width="110" height="55" as="geometry" />
        </mxCell>
        <mxCell id="oslHZ6fTA3NsTfyxlxgq-47" value="" style="edgeStyle=entityRelationEdgeStyle;fontSize=12;html=1;endArrow=ERoneToMany;rounded=0;exitX=0.5;exitY=0;exitDx=0;exitDy=0;entryX=0.5;entryY=1;entryDx=0;entryDy=0;" edge="1" parent="1" source="oslHZ6fTA3NsTfyxlxgq-45" target="oslHZ6fTA3NsTfyxlxgq-2">
          <mxGeometry width="100" height="100" relative="1" as="geometry">
            <mxPoint x="440.5" y="263" as="sourcePoint" />
            <mxPoint x="529.5" y="260" as="targetPoint" />
            <Array as="points">
              <mxPoint x="460" y="190" />
              <mxPoint x="480" y="200" />
              <mxPoint x="460" y="210" />
            </Array>
          </mxGeometry>
        </mxCell>
        <mxCell id="oslHZ6fTA3NsTfyxlxgq-48" value="" style="edgeStyle=entityRelationEdgeStyle;fontSize=12;html=1;endArrow=ERone;endFill=1;rounded=0;entryX=0;entryY=0.5;entryDx=0;entryDy=0;exitX=1;exitY=0.5;exitDx=0;exitDy=0;" edge="1" parent="1" source="oslHZ6fTA3NsTfyxlxgq-45" target="oslHZ6fTA3NsTfyxlxgq-19">
          <mxGeometry width="100" height="100" relative="1" as="geometry">
            <mxPoint x="250" y="158" as="sourcePoint" />
            <mxPoint x="180" y="155" as="targetPoint" />
          </mxGeometry>
        </mxCell>
        <mxCell id="oslHZ6fTA3NsTfyxlxgq-49" value="" style="edgeStyle=entityRelationEdgeStyle;fontSize=12;html=1;endArrow=ERoneToMany;rounded=0;exitX=0.5;exitY=0;exitDx=0;exitDy=0;entryX=1;entryY=1;entryDx=0;entryDy=0;" edge="1" parent="1" source="oslHZ6fTA3NsTfyxlxgq-42" target="oslHZ6fTA3NsTfyxlxgq-2">
          <mxGeometry width="100" height="100" relative="1" as="geometry">
            <mxPoint x="320" y="158" as="sourcePoint" />
            <mxPoint x="409" y="155" as="targetPoint" />
          </mxGeometry>
        </mxCell>
        <mxCell id="oslHZ6fTA3NsTfyxlxgq-50" value="" style="edgeStyle=entityRelationEdgeStyle;fontSize=12;html=1;endArrow=ERoneToMany;rounded=0;exitX=0.5;exitY=1;exitDx=0;exitDy=0;entryX=0.5;entryY=0;entryDx=0;entryDy=0;" edge="1" parent="1" source="oslHZ6fTA3NsTfyxlxgq-42" target="oslHZ6fTA3NsTfyxlxgq-19">
          <mxGeometry width="100" height="100" relative="1" as="geometry">
            <mxPoint x="665" y="200" as="sourcePoint" />
            <mxPoint x="519" y="180" as="targetPoint" />
          </mxGeometry>
        </mxCell>
        <mxCell id="oslHZ6fTA3NsTfyxlxgq-51" value="Honored" style="rhombus;whiteSpace=wrap;html=1;" vertex="1" parent="1">
          <mxGeometry x="55" y="290" width="120" height="70" as="geometry" />
        </mxCell>
        <mxCell id="oslHZ6fTA3NsTfyxlxgq-53" value="" style="edgeStyle=entityRelationEdgeStyle;fontSize=12;html=1;endArrow=ERone;endFill=1;rounded=0;entryX=0.5;entryY=1;entryDx=0;entryDy=0;exitX=0.5;exitY=0;exitDx=0;exitDy=0;" edge="1" parent="1" source="oslHZ6fTA3NsTfyxlxgq-51" target="oslHZ6fTA3NsTfyxlxgq-1">
          <mxGeometry width="100" height="100" relative="1" as="geometry">
            <mxPoint x="210" y="280" as="sourcePoint" />
            <mxPoint x="180" y="155" as="targetPoint" />
          </mxGeometry>
        </mxCell>
        <mxCell id="oslHZ6fTA3NsTfyxlxgq-54" value="" style="edgeStyle=entityRelationEdgeStyle;fontSize=12;html=1;endArrow=ERone;endFill=1;rounded=0;entryX=0.5;entryY=0;entryDx=0;entryDy=0;exitX=0.5;exitY=1;exitDx=0;exitDy=0;" edge="1" parent="1" source="oslHZ6fTA3NsTfyxlxgq-51" target="oslHZ6fTA3NsTfyxlxgq-26">
          <mxGeometry width="100" height="100" relative="1" as="geometry">
            <mxPoint x="125" y="300" as="sourcePoint" />
            <mxPoint x="125" y="180" as="targetPoint" />
          </mxGeometry>
        </mxCell>
        <mxCell id="iWSnITzS4v_ZsBWPTzPa-1" value="has" style="rhombus;whiteSpace=wrap;html=1;" vertex="1" parent="1">
          <mxGeometry x="520" y="557.5" width="80" height="52.5" as="geometry" />
        </mxCell>
        <mxCell id="iWSnITzS4v_ZsBWPTzPa-2" value="brand_name" style="rounded=0;whiteSpace=wrap;html=1;" vertex="1" parent="1">
          <mxGeometry x="680" y="550" width="110" height="50" as="geometry" />
        </mxCell>
        <mxCell id="iWSnITzS4v_ZsBWPTzPa-3" value="" style="edgeStyle=entityRelationEdgeStyle;fontSize=12;html=1;endArrow=ERone;endFill=1;rounded=0;entryX=1;entryY=0.5;entryDx=0;entryDy=0;exitX=0;exitY=0.5;exitDx=0;exitDy=0;" edge="1" parent="1" source="iWSnITzS4v_ZsBWPTzPa-1" target="oslHZ6fTA3NsTfyxlxgq-34">
          <mxGeometry width="100" height="100" relative="1" as="geometry">
            <mxPoint x="530" y="348" as="sourcePoint" />
            <mxPoint x="610" y="335" as="targetPoint" />
          </mxGeometry>
        </mxCell>
        <mxCell id="iWSnITzS4v_ZsBWPTzPa-4" value="" style="edgeStyle=entityRelationEdgeStyle;fontSize=12;html=1;endArrow=ERoneToMany;rounded=0;exitX=1;exitY=0.5;exitDx=0;exitDy=0;entryX=0;entryY=0.5;entryDx=0;entryDy=0;" edge="1" parent="1" source="iWSnITzS4v_ZsBWPTzPa-1" target="iWSnITzS4v_ZsBWPTzPa-2">
          <mxGeometry width="100" height="100" relative="1" as="geometry">
            <mxPoint x="459" y="443" as="sourcePoint" />
            <mxPoint x="548" y="440" as="targetPoint" />
          </mxGeometry>
        </mxCell>
        <mxCell id="iWSnITzS4v_ZsBWPTzPa-5" value="&lt;u&gt;code_num&lt;/u&gt;" style="ellipse;whiteSpace=wrap;html=1;" vertex="1" parent="1">
          <mxGeometry x="630" y="630" width="80" height="50" as="geometry" />
        </mxCell>
        <mxCell id="iWSnITzS4v_ZsBWPTzPa-6" value="&lt;u&gt;name&lt;/u&gt;" style="ellipse;whiteSpace=wrap;html=1;" vertex="1" parent="1">
          <mxGeometry x="730" y="630" width="80" height="50" as="geometry" />
        </mxCell>
        <mxCell id="iWSnITzS4v_ZsBWPTzPa-7" value="" style="endArrow=classic;html=1;rounded=0;exitX=0.336;exitY=1.053;exitDx=0;exitDy=0;exitPerimeter=0;entryX=0.604;entryY=-0.013;entryDx=0;entryDy=0;entryPerimeter=0;" edge="1" parent="1" source="iWSnITzS4v_ZsBWPTzPa-2" target="iWSnITzS4v_ZsBWPTzPa-5">
          <mxGeometry width="50" height="50" relative="1" as="geometry">
            <mxPoint x="693" y="610" as="sourcePoint" />
            <mxPoint x="710" y="638" as="targetPoint" />
          </mxGeometry>
        </mxCell>
        <mxCell id="iWSnITzS4v_ZsBWPTzPa-8" value="" style="endArrow=classic;html=1;rounded=0;exitX=0.645;exitY=1.04;exitDx=0;exitDy=0;exitPerimeter=0;entryX=0.5;entryY=0;entryDx=0;entryDy=0;" edge="1" parent="1" source="iWSnITzS4v_ZsBWPTzPa-2" target="iWSnITzS4v_ZsBWPTzPa-6">
          <mxGeometry width="50" height="50" relative="1" as="geometry">
            <mxPoint x="727" y="613" as="sourcePoint" />
            <mxPoint x="688" y="639" as="targetPoint" />
          </mxGeometry>
        </mxCell>
        <mxCell id="iWSnITzS4v_ZsBWPTzPa-9" value="adminstrate" style="rhombus;whiteSpace=wrap;html=1;" vertex="1" parent="1">
          <mxGeometry x="240" y="320" width="120" height="70" as="geometry" />
        </mxCell>
        <mxCell id="iWSnITzS4v_ZsBWPTzPa-10" value="" style="edgeStyle=entityRelationEdgeStyle;fontSize=12;html=1;endArrow=ERoneToMany;rounded=0;exitX=0;exitY=1;exitDx=0;exitDy=0;entryX=1;entryY=0;entryDx=0;entryDy=0;" edge="1" parent="1" source="iWSnITzS4v_ZsBWPTzPa-9" target="oslHZ6fTA3NsTfyxlxgq-26">
          <mxGeometry width="100" height="100" relative="1" as="geometry">
            <mxPoint x="210" y="423" as="sourcePoint" />
            <mxPoint x="299" y="420" as="targetPoint" />
          </mxGeometry>
        </mxCell>
        <mxCell id="iWSnITzS4v_ZsBWPTzPa-11" value="" style="edgeStyle=entityRelationEdgeStyle;fontSize=12;html=1;endArrow=ERoneToMany;rounded=0;exitX=0.5;exitY=1;exitDx=0;exitDy=0;entryX=0.439;entryY=-0.08;entryDx=0;entryDy=0;entryPerimeter=0;" edge="1" parent="1" source="iWSnITzS4v_ZsBWPTzPa-9" target="oslHZ6fTA3NsTfyxlxgq-34">
          <mxGeometry width="100" height="100" relative="1" as="geometry">
            <mxPoint x="465" y="440" as="sourcePoint" />
            <mxPoint x="355" y="507" as="targetPoint" />
          </mxGeometry>
        </mxCell>
        <mxCell id="iWSnITzS4v_ZsBWPTzPa-12" value="" style="edgeStyle=entityRelationEdgeStyle;fontSize=12;html=1;endArrow=ERoneToMany;rounded=0;exitX=0.5;exitY=0;exitDx=0;exitDy=0;entryX=0;entryY=1;entryDx=0;entryDy=0;" edge="1" parent="1" source="iWSnITzS4v_ZsBWPTzPa-9" target="oslHZ6fTA3NsTfyxlxgq-2">
          <mxGeometry width="100" height="100" relative="1" as="geometry">
            <mxPoint x="280" y="383" as="sourcePoint" />
            <mxPoint x="170" y="450" as="targetPoint" />
          </mxGeometry>
        </mxCell>
        <mxCell id="iWSnITzS4v_ZsBWPTzPa-13" value="&lt;u&gt;id&amp;nbsp;&lt;/u&gt;" style="ellipse;whiteSpace=wrap;html=1;" vertex="1" parent="1">
          <mxGeometry x="-60" y="480" width="80" height="50" as="geometry" />
        </mxCell>
      </root>
    </mxGraphModel>
  </diagram>
</mxfile>
